<svg width="648" height="151" viewBox="0 0 648 151" fill="none" xmlns="http://www.w3.org/2000/svg">
<path d="M150.809 59.6064L125.751 50.4863L100.682 59.6064L75.6235 50.4863L50.5542 59.6064L25.4959 50.4863L0.4375 59.6064V91.483L25.4959 100.614L50.5542 91.483L75.6235 100.614L100.682 91.483L125.751 100.614L150.809 91.483V59.6064Z" fill="black"/>
<path d="M150.799 9.47553H150.809L125.751 0.355469L100.682 9.47553L75.6235 0.355469L50.5542 9.47553L25.4959 0.355469L0.4375 9.47553V41.363L25.4959 50.4831L50.5542 41.363L75.6235 50.4831L100.682 41.363L125.751 50.4831L150.809 41.363V9.47553H150.799Z" fill="#28BE46"/>
<path d="M50.5534 9.47553L25.4841 18.6065L0.425781 9.47553L25.4841 0.355469L50.5534 9.47553Z" fill="black"/>
<path d="M100.669 9.47553L75.6111 18.6065L50.5527 9.47553L75.6111 0.355469L100.669 9.47553Z" fill="black"/>
<path d="M150.799 9.47553L125.741 18.6065L100.672 9.47553L125.741 0.355469L150.799 9.47553Z" fill="black"/>
<path d="M0.425781 91.4775L25.4841 82.3574L50.5534 91.4775L25.4841 100.608L0.425781 91.4775Z" fill="#28BE46"/>
<path d="M100.682 91.4775L125.74 82.3574L150.809 91.4775L125.74 100.608L100.682 91.4775Z" fill="#28BE46"/>
<path d="M100.669 59.6035L75.6111 68.7236L50.5527 59.6035V91.4801L75.6111 100.611L100.669 91.4801V59.6035Z" fill="#28BE46"/>
<path d="M150.809 109.729L125.751 100.609L100.682 109.729L75.6235 100.609L50.5542 109.729L25.4959 100.609L0.4375 109.729V141.606L25.4959 150.726L50.5542 141.606L75.6235 150.726L100.682 141.606L125.751 150.726L150.809 141.606V109.729Z" fill="black"/>
<path d="M0.425781 141.608L25.4841 132.488L50.5534 141.608L25.4841 150.728L0.425781 141.608Z" fill="#28BE46"/>
<path d="M100.682 141.608L125.74 132.488L150.809 141.608L125.74 150.728L100.682 141.608Z" fill="#28BE46"/>
<path d="M100.669 109.73L75.6111 118.851L50.5527 109.73V141.607L75.6111 150.727L100.669 141.607V109.73Z" fill="#28BE46"/>
<path d="M209.864 3.55078H255.269V13.9897H238.152V54.9555H226.867V13.9897H209.826L209.864 3.55078Z" fill="black"/>
<path d="M290.611 2.82031C306.166 2.82031 317.714 14.1056 317.714 29.2656C317.714 44.4256 306.166 55.7109 290.611 55.7109C275.056 55.7109 263.432 44.4256 263.432 29.2656C263.432 14.1056 274.98 2.82031 290.611 2.82031ZM306.09 29.2656C306.053 26.2033 305.111 23.2204 303.382 20.6926C301.652 18.1649 299.214 16.2053 296.373 15.0608C293.532 13.9162 290.417 13.6379 287.418 14.2607C284.419 14.8836 281.672 16.3798 279.523 18.561C277.373 20.7422 275.916 23.5108 275.337 26.5181C274.758 29.5254 275.081 32.6368 276.267 35.4606C277.452 38.2845 279.447 40.6943 281.999 42.3867C284.552 44.079 287.548 44.9783 290.611 44.9711C292.668 44.9919 294.709 44.5982 296.611 43.8134C298.514 43.0286 300.239 41.8689 301.683 40.4033C303.128 38.9377 304.263 37.1962 305.02 35.2827C305.777 33.3692 306.141 31.3229 306.09 29.2656Z" fill="black"/>
<path d="M332.914 3.55078H344.839L360.036 21.5509L375.215 3.55078H386.99V54.9555H376.08V17.6386L360.093 37.1247L344.011 17.7891V54.8991H332.97L332.914 3.55078Z" fill="black"/>
<path d="M423.665 12.6585C419.075 12.6585 415.896 14.7463 415.896 17.6993C415.896 20.6523 419.15 21.8561 422.48 22.8153L429.307 24.6962C437.376 26.8592 443.903 30.7715 443.903 39.7433C443.903 49.524 434.498 55.825 423.74 55.825C412.454 55.825 404.931 50.6337 402.109 45.0851L409.445 38.4079C410.982 40.7825 413.105 42.7217 415.608 44.0393C418.112 45.3568 420.912 46.0084 423.74 45.9315C428.479 45.9315 432.11 44.0506 432.11 40.665C432.11 37.6367 429.458 36.3765 425.903 35.4173L418.567 33.5364C411.307 31.6555 404.122 28.3451 404.122 19.1664C404.122 9.53623 413.527 2.95312 424.342 2.95312C434.329 2.95312 441.458 7.76821 444.336 13.2416L437.15 20.2009C435.753 17.879 433.774 15.962 431.409 14.6392C429.044 13.3164 426.374 12.6337 423.665 12.6585Z" fill="black"/>
<path d="M460.494 54.9555V3.55078H471.779V54.9555H460.494ZM490.419 3.55078H502.946L484.946 25.9146L506.2 54.9555H492.864L471.836 26.366L490.419 3.55078Z" fill="black"/>
<path d="M214.678 95.7148H234.897C245.562 95.7148 253.706 101.715 253.706 112.643C253.706 123.571 245.487 129.383 234.897 129.383H226.001V147.157H214.715L214.678 95.7148ZM242.007 112.643C242.007 108.712 239.035 105.985 234.484 105.985H226.038V119.527H234.484C239.035 119.489 242.007 116.612 242.007 112.605V112.643Z" fill="black"/>
<path d="M291.646 94.9844C307.201 94.9844 318.749 106.27 318.749 121.43C318.749 136.59 307.201 147.875 291.646 147.875C276.091 147.875 264.467 136.59 264.467 121.43C264.467 106.27 276.015 94.9844 291.646 94.9844ZM307.125 121.43C307.088 118.367 306.146 115.384 304.417 112.857C302.688 110.329 300.249 108.369 297.408 107.225C294.568 106.08 291.452 105.802 288.453 106.425C285.455 107.048 282.708 108.544 280.558 110.725C278.408 112.906 276.951 115.675 276.372 118.682C275.793 121.689 276.116 124.801 277.301 127.625C278.487 130.449 280.482 132.858 283.034 134.551C285.587 136.243 288.583 137.142 291.646 137.135C293.703 137.156 295.744 136.762 297.647 135.977C299.549 135.193 301.274 134.033 302.718 132.567C304.163 131.102 305.297 129.36 306.055 127.447C306.812 125.533 307.176 123.487 307.125 121.43Z" fill="black"/>
<path d="M345.287 136.681H368.986V147.12H333.945V95.7148H345.231L345.287 136.681Z" fill="black"/>
<path d="M382.85 95.7148L395.584 116.405L408.261 95.7148H420.788L401.302 127.577V147.12H390.016V127.709L370.398 95.7337L382.85 95.7148Z" fill="black"/>
<path d="M427.597 95.7148H473.021V106.154H455.904V147.12H444.619V106.154H427.578L427.597 95.7148Z" fill="black"/>
<path d="M487.768 95.7148H526.721V106.041H499.091V116.047H518.577V126.054H499.091V136.718H527.022V147.082H487.768V95.7148Z" fill="black"/>
<path d="M565.032 105.724C560.867 105.724 556.872 107.379 553.927 110.324C550.982 113.27 549.327 117.264 549.327 121.43C549.327 125.595 550.982 129.59 553.927 132.535C556.872 135.48 560.867 137.135 565.032 137.135C567.736 137.145 570.4 136.479 572.782 135.198C575.163 133.917 577.187 132.061 578.669 129.8L586.738 136.759C584.343 140.302 581.089 143.179 577.28 145.123C573.471 147.067 569.231 148.014 564.957 147.875C549.628 147.875 537.703 137.267 537.703 121.43C537.703 105.593 550.587 94.9844 564.882 94.9844C577.032 94.9844 583.917 101.417 586.738 106.082L578.669 113.06C577.187 110.798 575.163 108.942 572.782 107.661C570.4 106.38 567.736 105.714 565.032 105.724Z" fill="black"/>
<path d="M647.492 95.7148V147.12H636.206V126.242H612.582V147.12H601.297V95.7148H612.582V115.859H636.206V95.7148H647.492Z" fill="black"/>
</svg>
