<svg width="648" height="151" viewBox="0 0 648 151" fill="none" xmlns="http://www.w3.org/2000/svg">
<path d="M150.962 59.6064L125.903 50.4863L100.834 59.6064L75.7758 50.4863L50.7066 59.6064L25.6482 50.4863L0.589844 59.6064V91.483L25.6482 100.614L50.7066 91.483L75.7758 100.614L100.834 91.483L125.903 100.614L150.962 91.483V59.6064Z" fill="#28BE46"/>
<path d="M150.951 9.47553H150.962L125.903 0.355469L100.834 9.47553L75.7758 0.355469L50.7066 9.47553L25.6482 0.355469L0.589844 9.47553V41.363L25.6482 50.4831L50.7066 41.363L75.7758 50.4831L100.834 41.363L125.903 50.4831L150.962 41.363V9.47553H150.951Z" fill="white"/>
<path d="M50.7057 9.47553L25.6365 18.6065L0.578125 9.47553L25.6365 0.355469L50.7057 9.47553Z" fill="#28BE46"/>
<path d="M100.822 9.47553L75.7634 18.6065L50.7051 9.47553L75.7634 0.355469L100.822 9.47553Z" fill="#28BE46"/>
<path d="M150.952 9.47553L125.893 18.6065L100.824 9.47553L125.893 0.355469L150.952 9.47553Z" fill="#28BE46"/>
<path d="M0.578125 91.4775L25.6365 82.3574L50.7057 91.4775L25.6365 100.608L0.578125 91.4775Z" fill="white"/>
<path d="M100.834 91.4775L125.892 82.3574L150.962 91.4775L125.892 100.608L100.834 91.4775Z" fill="white"/>
<path d="M100.822 59.6035L75.7634 68.7236L50.7051 59.6035V91.4801L75.7634 100.611L100.822 91.4801V59.6035Z" fill="white"/>
<path d="M150.962 109.729L125.903 100.609L100.834 109.729L75.7758 100.609L50.7066 109.729L25.6482 100.609L0.589844 109.729V141.606L25.6482 150.726L50.7066 141.606L75.7758 150.726L100.834 141.606L125.903 150.726L150.962 141.606V109.729Z" fill="#28BE46"/>
<path d="M0.578125 141.608L25.6365 132.488L50.7057 141.608L25.6365 150.728L0.578125 141.608Z" fill="white"/>
<path d="M100.834 141.608L125.892 132.488L150.962 141.608L125.892 150.728L100.834 141.608Z" fill="white"/>
<path d="M100.822 109.73L75.7634 118.851L50.7051 109.73V141.607L75.7634 150.727L100.822 141.607V109.73Z" fill="white"/>
<path d="M209.996 3.55078H255.42V13.9897H238.398V54.9555H227.112V13.9897H209.996V3.55078Z" fill="white"/>
<path d="M290.762 2.82031C306.317 2.82031 317.866 14.1057 317.866 29.2656C317.866 44.4256 306.317 55.7109 290.762 55.7109C275.207 55.7109 263.564 44.4256 263.564 29.2656C263.564 14.1057 275.132 2.82031 290.762 2.82031ZM306.242 29.2656C306.205 26.2033 305.262 23.2204 303.533 20.6926C301.804 18.1649 299.365 16.2053 296.525 15.0608C293.684 13.9162 290.568 13.6379 287.57 14.2607C284.571 14.8836 281.824 16.3798 279.674 18.561C277.524 20.7422 276.068 23.5108 275.489 26.5181C274.909 29.5254 275.233 32.6368 276.418 35.4606C277.604 38.2845 279.598 40.6943 282.151 42.3867C284.703 44.079 287.7 44.9783 290.762 44.9711C292.819 44.9893 294.859 44.5938 296.76 43.8081C298.661 43.0224 300.385 41.8626 301.829 40.3975C303.273 38.9324 304.408 37.192 305.166 35.2797C305.924 33.3674 306.29 31.3222 306.242 29.2656V29.2656Z" fill="white"/>
<path d="M333.062 3.55078H344.987L360.166 21.5509L375.364 3.55078H387.138V54.9555H376.173V17.6386L360.166 37.1247L344.103 17.8455V54.9555H333.062V3.55078Z" fill="white"/>
<path d="M423.813 12.6556C419.223 12.6556 416.045 14.7434 416.045 17.6964C416.045 20.6494 419.299 21.8532 422.628 22.8124L429.437 24.6933C437.525 26.8564 444.032 30.7686 444.032 39.7405C444.032 49.5211 434.628 55.8221 423.888 55.8221C412.603 55.8221 405.079 50.6308 402.258 45.0822L409.556 38.3298C411.093 40.7043 413.216 42.6436 415.719 43.9611C418.222 45.2787 421.023 45.9303 423.85 45.8533C428.59 45.8533 432.22 43.9724 432.22 40.5868C432.22 37.5586 429.55 36.2984 425.995 35.3392L418.659 33.4583C411.399 31.5774 404.214 28.267 404.214 19.0883C404.214 9.45811 413.618 2.875 424.452 2.875C434.44 2.875 441.55 7.69008 444.446 13.1635L437.261 20.1228C435.855 17.8229 433.877 15.9264 431.521 14.6179C429.164 13.3093 426.508 12.6333 423.813 12.6556V12.6556Z" fill="white"/>
<path d="M460.643 54.9555V3.55078H471.928V54.9555H460.643ZM490.568 3.55078H503.094L485.094 25.9146L506.348 54.9555H493.013L471.966 26.366L490.568 3.55078Z" fill="white"/>
<path d="M214.812 95.7148H235.051C245.716 95.7148 253.86 101.715 253.86 112.643C253.86 123.571 245.64 129.383 235.051 129.383H226.154V147.157H214.869L214.812 95.7148ZM242.161 112.643C242.161 108.712 239.189 105.985 234.637 105.985H226.192V119.527H234.637C239.189 119.489 242.161 116.612 242.161 112.605V112.643Z" fill="white"/>
<path d="M291.795 94.9844C307.35 94.9844 318.899 106.27 318.899 121.43C318.899 136.59 307.35 147.875 291.795 147.875C276.24 147.875 264.598 136.59 264.598 121.43C264.598 106.27 276.165 94.9844 291.795 94.9844ZM307.275 121.43C307.238 118.367 306.295 115.384 304.566 112.857C302.837 110.329 300.399 108.369 297.558 107.225C294.717 106.08 291.602 105.802 288.603 106.425C285.604 107.048 282.857 108.544 280.707 110.725C278.557 112.906 277.101 115.675 276.522 118.682C275.942 121.689 276.266 124.801 277.451 127.625C278.637 130.449 280.632 132.858 283.184 134.551C285.737 136.243 288.733 137.142 291.795 137.135C293.853 137.156 295.894 136.762 297.796 135.977C299.699 135.193 301.424 134.033 302.868 132.567C304.313 131.102 305.447 129.36 306.204 127.447C306.962 125.533 307.326 123.487 307.275 121.43V121.43Z" fill="white"/>
<path d="M345.439 136.681H369.139V147.12H334.098V95.7148H345.383L345.439 136.681Z" fill="white"/>
<path d="M382.998 95.7148L395.732 116.405L408.409 95.7148H420.841L401.355 127.577V147.12H390.07V127.709L370.434 95.7337L382.998 95.7148Z" fill="white"/>
<path d="M427.747 95.7148H473.152V106.154H456.055V147.12H444.769V106.154H427.729L427.747 95.7148Z" fill="white"/>
<path d="M487.916 95.7148H526.869V106.041H499.239V116.047H518.65V126.054H499.239V136.718H527.17V147.082H487.916V95.7148Z" fill="white"/>
<path d="M565.182 105.724C561.017 105.724 557.022 107.379 554.077 110.324C551.131 113.27 549.477 117.264 549.477 121.43C549.477 125.595 551.131 129.59 554.077 132.535C557.022 135.48 561.017 137.135 565.182 137.135C567.884 137.147 570.546 136.482 572.925 135.201C575.303 133.919 577.323 132.062 578.8 129.8L586.888 136.759C584.493 140.302 581.238 143.179 577.43 145.123C573.621 147.067 569.381 148.014 565.107 147.875C549.778 147.875 537.834 137.267 537.834 121.43C537.834 105.593 550.737 94.9844 565.032 94.9844C577.182 94.9844 584.066 101.417 586.888 106.082L578.8 113.06C577.323 110.797 575.303 108.94 572.925 107.659C570.546 106.377 567.884 105.712 565.182 105.724V105.724Z" fill="white"/>
<path d="M647.64 95.7148V147.12H636.355V126.242H612.694V147.12H601.408V95.7148H612.694V115.859H636.318V95.7148H647.64Z" fill="white"/>
</svg>
